<?xml version="1.0"?>
<svg width="270" height="270" xmlns="http://www.w3.org/2000/svg" xmlns:svg="http://www.w3.org/2000/svg">
 <metadata id="metadata8">image/svg+xml</metadata>
 <g>
  <title>Layer 1</title>
  <g stroke="null" id="svg_2">
   <path stroke="null" d="m125.125198,113.51226l19.475937,0l4.839035,-6.661934l0,-52.173843l-29.150436,0l0,52.179214l4.835464,6.656563" id="path28" fill-rule="nonzero" fill="#8a4182"/>
   <path stroke="null" d="m112.571808,136.782516l6.016663,-18.520691l-4.839203,-6.660141l-49.622292,-16.121742l-9.006668,27.721085l49.627647,16.125328l7.823853,-2.543839" id="path30" fill-rule="nonzero" fill="#8a4182"/>
   <path stroke="null" d="m130.824661,155.914993l-15.754654,-11.449081l-7.830795,2.545624l-30.666733,42.211365l23.581696,17.132111l30.670486,-42.212784l0,-8.227234" id="path32" fill-rule="nonzero" fill="#8a4182"/>
   <path stroke="null" d="m154.660217,144.464142l-15.75856,11.447296l0.003555,8.232605l30.667435,42.210983l23.583313,-17.132126l-30.672775,-42.21492l-7.822968,-2.543839" id="path34" fill-rule="nonzero" fill="#8a4182"/>
   <path stroke="null" d="m151.134262,118.258247l6.01973,18.522469l7.830093,2.542053l49.622833,-16.121742l-9.008987,-27.722878l-49.624603,16.125328l-4.839066,6.65477" id="path36" fill-rule="nonzero" fill="#8a4182"/>
   <path d="m134.8694,9.390011c-69.327393,0 -125.730778,56.393887 -125.730778,125.710941c0,69.342255 56.403385,125.751892 125.730778,125.751892c69.320633,0 125.718094,-56.409637 125.718094,-125.751892c0,-69.317055 -56.397461,-125.710941 -125.718094,-125.710941l0,0zm0,25.45454c55.36348,0 100.259995,44.880409 100.259995,100.256401c0,55.39389 -44.896515,100.293961 -100.259995,100.293961c-55.382233,0 -100.272835,-44.90007 -100.272835,-100.293961c0,-55.375992 44.890602,-100.256401 100.272835,-100.256401" id="path38" fill-rule="nonzero" fill="#8a4182"/>
   <path stroke="null" d="m211.018341,163.043854l-37.721146,-12.257675l2.493744,-7.683395l37.721161,12.257675l-2.493759,7.683395" id="path40" fill-rule="nonzero" fill="#8a4182"/>
   <path stroke="null" d="m162.908951,102.485359l-6.536728,-4.747803l23.311432,-32.087845l6.536682,4.747795l-23.311386,32.087852" id="path42" fill-rule="nonzero" fill="#8a4182"/>
   <path stroke="null" d="m107.222565,102.193764l-23.308365,-32.089638l6.537262,-4.747803l23.308365,32.087852l-6.537262,4.749588" id="path44" fill-rule="nonzero" fill="#8a4182"/>
   <path stroke="null" d="m58.554848,162.564423l-2.495361,-7.683411l37.717384,-12.252304l2.49556,7.683395l-37.717583,12.252319" id="path46" fill-rule="nonzero" fill="#8a4182"/>
   <path stroke="null" d="m130.576004,215.257019l8.078781,0l0,-39.663712l-8.078781,0l0,39.663712z" id="path48" fill-rule="nonzero" fill="#8a4182"/>
  </g>
 </g>
</svg>